<?xml version="1.0" encoding="UTF-8" standalone="no"?>
<svg
   xmlns:dc="http://purl.org/dc/elements/1.1/"
   xmlns:cc="http://creativecommons.org/ns#"
   xmlns:rdf="http://www.w3.org/1999/02/22-rdf-syntax-ns#"
   xmlns:svg="http://www.w3.org/2000/svg"
   xmlns="http://www.w3.org/2000/svg"
   xmlns:xlink="http://www.w3.org/1999/xlink"
   xmlns:sodipodi="http://sodipodi.sourceforge.net/DTD/sodipodi-0.dtd"
   xmlns:inkscape="http://www.inkscape.org/namespaces/inkscape"
   width="1920"
   height="1080"
   viewBox="0 0 507.99926 285.75035"
   version="1.1"
   id="svg8"
   inkscape:version="1.0.1 (3bc2e813f5, 2020-09-07)"
   sodipodi:docname="drawing.svg"
   inkscape:export-filename="C:\Users\Naveen\Desktop\drawing6.svg.png"
   inkscape:export-xdpi="95.999939"
   inkscape:export-ydpi="95.999939">
  <defs
     id="defs2">
    <linearGradient
       inkscape:collect="always"
       id="linearGradient1339">
      <stop
         style="stop-color:#3485fd;stop-opacity:1"
         offset="0"
         id="stop1335" />
      <stop
         style="stop-color:#6610f2;stop-opacity:1"
         offset="1"
         id="stop1337" />
    </linearGradient>
    <linearGradient
       inkscape:collect="always"
       xlink:href="#linearGradient1339"
       id="linearGradient1341"
       x1="66.849609"
       y1="-13.185547"
       x2="1362.6035"
       y2="490.80469"
       gradientUnits="userSpaceOnUse"
       gradientTransform="matrix(0.37716948,0,0,0.30285098,-0.98296479,0.51181042)" />
    <linearGradient
       inkscape:collect="always"
       xlink:href="#linearGradient1339"
       id="linearGradient1349"
       x1="143.9707"
       y1="457.04297"
       x2="506.3671"
       y2="629.64575"
       gradientUnits="userSpaceOnUse"
       gradientTransform="matrix(0.37545823,0,0,0.31455922,-0.96742954,0.66944185)" />
    <linearGradient
       inkscape:collect="always"
       xlink:href="#linearGradient1339"
       id="linearGradient1357"
       x1="1362.6035"
       y1="295.11523"
       x2="1382.3833"
       y2="701.78845"
       gradientUnits="userSpaceOnUse"
       gradientTransform="matrix(0.37545823,0,0,0.31455922,-0.96742954,0.66944185)" />
    <linearGradient
       inkscape:collect="always"
       xlink:href="#linearGradient1339"
       id="linearGradient872"
       gradientUnits="userSpaceOnUse"
       gradientTransform="matrix(0.37545826,0,0,0.31455922,-0.96742976,0.66944194)"
       x1="66.849609"
       y1="-13.185547"
       x2="1362.6035"
       y2="490.80469" />
  </defs>
  <sodipodi:namedview
     id="base"
     pagecolor="#ffffff"
     bordercolor="#666666"
     borderopacity="1.0"
     inkscape:pageopacity="0"
     inkscape:pageshadow="2"
     inkscape:zoom="0.28357371"
     inkscape:cx="928.78144"
     inkscape:cy="342.55858"
     inkscape:document-units="px"
     inkscape:current-layer="layer1"
     inkscape:document-rotation="0"
     showgrid="false"
     showborder="true"
     inkscape:lockguides="false"
     width="298mm"
     units="px"
     inkscape:pagecheckerboard="false"
     inkscape:window-width="1366"
     inkscape:window-height="705"
     inkscape:window-x="-8"
     inkscape:window-y="-8"
     inkscape:window-maximized="1"
     showguides="false"
     fit-margin-top="0"
     fit-margin-left="0"
     fit-margin-right="0"
     fit-margin-bottom="0"
     inkscape:object-paths="true"
     inkscape:snap-intersection-paths="true"
     inkscape:snap-smooth-nodes="true" />
  <metadata
     id="metadata5">
    <rdf:RDF>
      <cc:Work
         rdf:about="">
        <dc:format>image/svg+xml</dc:format>
        <dc:type
           rdf:resource="http://purl.org/dc/dcmitype/StillImage" />
        <dc:title />
      </cc:Work>
    </rdf:RDF>
  </metadata>
  <g
     inkscape:label="Layer 1"
     inkscape:groupmode="layer"
     id="layer1"
     transform="translate(-2.2657802,3.5488594)">
    <path
       id="path1265"
       style="fill:url(#linearGradient872);fill-opacity:1;stroke:#281845;stroke-width:0.0687325;stroke-miterlimit:4.8;stroke-dasharray:none;paint-order:markers fill stroke"
       d="m 487.10426,-3.5482138 v 0.069776 H 380.73258 300.69882 263.0221 32.799763 v -0.034889 H 2.299338 V 15.069795 h 0.034106 v 14.351976 47.978931 46.839958 45.73804 l 50.754457,-25.54253 51.974539,-26.15711 134.42469,53.48967 98.5122,39.19943 c 0.7315,0.29107 1.48312,0.55428 2.25155,0.79062 0.76841,0.23635 1.55374,0.44601 2.35283,0.62853 0.7991,0.18252 1.61192,0.33792 2.43549,0.4675 0.82357,0.12959 1.65724,0.23327 2.49909,0.31077 1.68359,0.15504 3.39826,0.20671 5.11749,0.15888 1.71925,-0.0479 3.44349,-0.19547 5.14852,-0.43905 1.70505,-0.24359 3.39074,-0.5833 5.03173,-1.01552 1.64099,-0.43222 3.23741,-0.95731 4.76456,-1.57106 0.76362,-0.30688 1.50973,-0.63561 2.23552,-0.98653 0.72582,-0.35092 1.43131,-0.72343 2.11305,-1.1175 0.68173,-0.39409 1.33997,-0.80944 1.97144,-1.24578 0.63151,-0.43634 1.23629,-0.89365 1.81125,-1.37138 l 24.075,-20.00173 110.82617,-92.075601 V 48.211536 16.408432 h 0.0341 V -3.5482138 Z" />
    <path
       id="path1263"
       style="fill:url(#linearGradient1349);fill-opacity:1;stroke:#281845;stroke-width:0.0687326;stroke-miterlimit:4.8;stroke-dasharray:none;paint-order:markers fill stroke"
       d="m 105.06286,118.27896 -51.975305,26.15756 128.588575,51.16747 c 0.6818,0.2713 1.38183,0.51696 2.09804,0.73726 0.71619,0.22028 1.44853,0.41537 2.19335,0.58548 1.48962,0.34023 3.03084,0.58045 4.60008,0.72498 1.56926,0.14448 3.16632,0.19326 4.76876,0.14866 1.60246,-0.0446 3.20962,-0.18211 4.79882,-0.40917 1.5892,-0.22703 3.16078,-0.54388 4.6903,-0.94673 1.52954,-0.40288 3.01756,-0.89201 4.44098,-1.46406 1.4234,-0.57206 2.78217,-1.22709 4.05305,-1.96171 0.63542,-0.36729 1.24834,-0.75446 1.83695,-1.16115 0.58858,-0.4067 1.15287,-0.83264 1.68881,-1.27791 l 22.64191,-18.81088 z" />
    <path
       id="path1225"
       style="fill:url(#linearGradient1357);fill-opacity:1;stroke:#281845;stroke-width:0.0687326;stroke-miterlimit:4.8;stroke-dasharray:none;paint-order:markers fill stroke"
       d="M 510.6333,155.05657 V 93.500656 l -110.82619,92.075534 28.4527,11.17791 c 0.73837,0.2901 1.49665,0.55225 2.27252,0.78762 0.77594,0.23537 1.56888,0.4439 2.37595,0.62545 0.80713,0.18152 1.6283,0.33584 2.4603,0.46446 0.83202,0.12861 1.67494,0.23122 2.52553,0.3078 1.70125,0.15313 3.43344,0.20323 5.17136,0.1536 1.73789,-0.0496 3.48163,-0.19896 5.20581,-0.44419 1.72418,-0.24526 3.42913,-0.58681 5.08923,-1.02049 1.66009,-0.43367 3.27523,-0.95968 4.82079,-1.57463 0.77282,-0.30749 1.52833,-0.63707 2.26305,-0.98853 0.73473,-0.35146 1.4487,-0.72485 2.13911,-1.11939 0.69035,-0.39454 1.35708,-0.80984 1.9968,-1.24656 0.6397,-0.43673 1.25275,-0.8945 1.83549,-1.37251 z" />
  </g>
</svg>
